<svg xmlns="http://www.w3.org/2000/svg" viewBox="0 0 1200 630" role="img" aria-labelledby="title desc">
<title id="title">Creative session placeholder</title>
<desc id="desc">Abstract workshop and creative placeholder for seeded events.</desc>
<defs>
<linearGradient id="bg" x1="0%" y1="0%" x2="100%" y2="100%">
<stop offset="0%" stop-color="#1f2234"/>
<stop offset="100%" stop-color="#645c89"/>
</linearGradient>
</defs>
<rect width="1200" height="630" fill="url(#bg)"/>
<rect x="120" y="120" width="420" height="280" rx="26" fill="#f1ecdf"/>
<rect x="160" y="168" width="340" height="22" rx="11" fill="#d7cfb9"/>
<rect x="160" y="218" width="210" height="22" rx="11" fill="#d7cfb9"/>
<rect x="160" y="268" width="292" height="22" rx="11" fill="#d7cfb9"/>
<rect x="160" y="318" width="248" height="22" rx="11" fill="#d7cfb9"/>
<circle cx="854" cy="244" r="126" fill="#f18f6a"/>
<path d="M784 198 L960 374" stroke="#f7e9d3" stroke-width="26" stroke-linecap="round"/>
<path d="M960 198 L784 374" stroke="#f7e9d3" stroke-width="26" stroke-linecap="round"/>
<path d="M722 470 C782 390 882 390 942 470" fill="none" stroke="#f7e9d3" stroke-width="18" stroke-linecap="round"/>
<circle cx="760" cy="500" r="20" fill="#f7e9d3"/>
<circle cx="840" cy="470" r="20" fill="#f7e9d3"/>
<circle cx="920" cy="500" r="20" fill="#f7e9d3"/>
<text x="92" y="92" fill="#f8f3ea" font-size="46" font-family="Helvetica, Arial, sans-serif" font-weight="700">Seed Event</text>
<text x="92" y="138" fill="#f8f3ea" font-size="24" font-family="Helvetica, Arial, sans-serif">Workshop placeholder</text>
</svg>
