<svg xmlns="http://www.w3.org/2000/svg" viewBox="0 0 1200 630" role="img" aria-labelledby="title desc">
<title id="title">Outdoor gathering placeholder</title>
<desc id="desc">Abstract outdoor placeholder for seeded events.</desc>
<defs>
<linearGradient id="sky" x1="0%" y1="0%" x2="0%" y2="100%">
<stop offset="0%" stop-color="#f6d28f"/>
<stop offset="55%" stop-color="#f8ead1"/>
<stop offset="100%" stop-color="#cfe6d8"/>
</linearGradient>
</defs>
<rect width="1200" height="630" fill="url(#sky)"/>
<circle cx="965" cy="118" r="66" fill="#f19d65"/>
<path d="M0 390 C160 340 290 330 430 376 C550 416 705 430 850 392 C970 362 1090 330 1200 350 L1200 630 L0 630 Z" fill="#8cb88f"/>
<path d="M0 475 C150 435 300 425 435 470 C560 510 725 520 870 485 C1015 450 1100 438 1200 452 L1200 630 L0 630 Z" fill="#5f8e69"/>
<path d="M170 460 C170 362 244 285 340 285 C438 285 514 360 514 460 Z" fill="#fff5e3" opacity="0.95"/>
<path d="M730 445 C730 365 792 302 872 302 C952 302 1014 365 1014 445 Z" fill="#fff5e3" opacity="0.9"/>
<circle cx="340" cy="366" r="20" fill="#5f8e69"/>
<circle cx="872" cy="380" r="18" fill="#5f8e69"/>
<path d="M258 480 L422 480" stroke="#486d55" stroke-width="14" stroke-linecap="round"/>
<path d="M794 464 L950 464" stroke="#486d55" stroke-width="14" stroke-linecap="round"/>
<text x="92" y="96" fill="#3f5b4b" font-size="46" font-family="Helvetica, Arial, sans-serif" font-weight="700">Seed Event</text>
<text x="92" y="140" fill="#3f5b4b" font-size="24" font-family="Helvetica, Arial, sans-serif">Outdoor placeholder</text>
</svg>
